<svg xmlns="http://www.w3.org/2000/svg" x="0px" y="0px" width="32" height="32" viewBox="0 0 64 64">
    <linearGradient id="J5U0umAhBKvqiGaJJA-7qa_C5vHoF1T9Sqf_gr1" x1="206.531" x2="222.248" y1="733.749" y2="733.749" gradientTransform="rotate(90 469.078 296.673)" gradientUnits="userSpaceOnUse"><stop offset="0" stop-color="#6dc7ff"></stop><stop offset="1" stop-color="#eaabff"></stop></linearGradient><path fill="url(#J5U0umAhBKvqiGaJJA-7qa_C5vHoF1T9Sqf_gr1)" d="M10.099,51.999l-2.092-4.285	c-0.613-1.316-1-2.816-1-4.287c0-2.863,2.875-6.73,5-8.168v0.74l4,10l9-9c0.673-0.673,1.4-1.264,2.207-1.74h9.583	c0.807,0.476,1.533,1.067,2.208,1.74l9,9l4-10v-0.733c2.121,1.436,4.992,5.303,4.992,8.161c0,1.471-0.387,2.971-1,4.287	l-2.092,4.285h-0.111c-0.377-1.552-2.54-4.392-3.792-5l-12.149-5.891c-1.865-0.904-4.381-2.109-5.851-2.109	c-1.469,0-3.983,1.207-5.845,2.109l-12.149,5.891c-1.253,0.608-3.416,3.448-3.793,5H10.099z"></path><linearGradient id="J5U0umAhBKvqiGaJJA-7qb_C5vHoF1T9Sqf_gr2" x1="210.037" x2="221.766" y1="733.747" y2="733.747" gradientTransform="rotate(90 463.82 301.936)" gradientUnits="userSpaceOnUse"><stop offset="0" stop-color="#6dc7ff"></stop><stop offset="1" stop-color="#eaabff"></stop></linearGradient><path fill="url(#J5U0umAhBKvqiGaJJA-7qb_C5vHoF1T9Sqf_gr2)" d="M16.549,58.591c-1.116-1.011-1.536-1.817-1.536-2.592	c0-1.665,2.311-3,4-3h4c5.632,0,4.741-4,8-4h1.992c3.259,0,2.368,4,8,4h4c1.689,0,4,1.335,4,3c0,0.775-0.42,1.581-1.547,2.6	c-0.944,0.679-2.771,1.4-4.451,1.4c-5.537,0-5.439-3-11-3s-5.457,3-10.995,3C19.331,59.999,17.505,59.277,16.549,58.591z"></path><linearGradient id="J5U0umAhBKvqiGaJJA-7qc_C5vHoF1T9Sqf_gr3" x1="199.519" x2="212.316" y1="733.748" y2="733.748" gradientTransform="rotate(90 479.597 286.155)" gradientUnits="userSpaceOnUse"><stop offset="0" stop-color="#6dc7ff"></stop><stop offset="1" stop-color="#eaabff"></stop></linearGradient><path fill="url(#J5U0umAhBKvqiGaJJA-7qc_C5vHoF1T9Sqf_gr3)" d="M15.097,19l0.131-0.711	C16.739,12.095,23.33,7,32.006,7c8.619,0,15.253,5.141,16.777,11.308L48.911,19H15.097z"></path><linearGradient id="J5U0umAhBKvqiGaJJA-7qd_C5vHoF1T9Sqf_gr4" x1="199.189" x2="255.114" y1="733.749" y2="733.749" gradientTransform="rotate(90 480.094 285.66)" gradientUnits="userSpaceOnUse"><stop offset="0" stop-color="#1a6dff"></stop><stop offset="1" stop-color="#c822ff"></stop></linearGradient><path fill="url(#J5U0umAhBKvqiGaJJA-7qd_C5vHoF1T9Sqf_gr4)" d="M16.125,59.508c-0.029-0.015-0.143-0.083-0.2-0.12	c-3.235-1.951-5.917-5.399-5.917-8.389c0-2.812,1.987-4.135,3.563-4.899l1.172-0.568l-3.664-9.161	c-0.047-0.119-0.071-0.244-0.071-0.372V21c0-10.077,9.571-18,20.999-18c11.429,0,21.001,7.922,21.001,18v3	c0,0.093-0.001,0.187-0.003,0.28v11.72c0,0.128-0.025,0.253-0.072,0.372l-3.665,9.162l1.171,0.567	c1.588,0.769,3.564,2.095,3.564,4.899c0,2.811-2.357,6.015-5.857,8.316l-0.395,0.224c-0.873,0.687-2.887,1.46-4.748,1.46	c-3.017,0-4.553-0.841-5.973-1.623c-1.303-0.717-2.493-1.377-5.027-1.377c-2.535,0-3.723,0.66-5.024,1.376	c-1.42,0.783-2.955,1.624-5.971,1.624C19.41,60.999,17.702,60.428,16.125,59.508z M26.013,57.624	c0.607-0.335,1.236-0.68,1.993-0.965l0.001-2.66h2v-2h4v2h2v2.664c0.753,0.284,1.38,0.628,1.985,0.96	c1.304,0.719,2.488,1.376,5.009,1.376c1.499,0,3.14-0.668,4.06-1.359c0.649-0.611,0.937-1.172,0.937-1.641c0-0.883-1.584-2-3-2	H44.75l-0.76,3.123c-0.121,0.495-0.968,0.877-1.995,0.877c-1.051,0-1.916-0.403-2.001-0.916l-0.793-3.231	c-1.949-0.349-3.017-1.263-3.84-2.188c-0.456-0.515-0.788-0.961-1.159-1.263c-0.297-0.24-0.633-0.403-1.203-0.403h-1.992	c-0.571,0-0.907,0.163-1.204,0.403c-0.379,0.307-0.764,0.817-1.159,1.263c-0.824,0.927-1.895,1.841-3.847,2.188l-0.791,3.231	c-0.085,0.513-0.951,0.916-2.001,0.916c-1.027,0-1.873-0.383-1.995-0.877l-0.761-3.123h-0.243c-1.384,0-3,1.101-3,2	c0,0.467,0.287,1.029,0.911,1.621c0.949,0.708,2.589,1.379,4.089,1.379C23.527,58.999,24.71,58.341,26.013,57.624z M52.002,50.999	c0-1.612-1.016-2.411-2.437-3.1l-12.149-5.891c-2.072-1.004-4.277-2.009-5.413-2.009c-1.109,0-3.225,0.951-5.409,2.009	l-12.149,5.891c-1.409,0.684-2.436,1.479-2.436,3.1c0,1.317,0.831,2.889,2.087,4.291c0.503-2.005,3.061-3.291,4.913-3.291h4	c1.285,0,2.129-0.227,2.724-0.521c0.596-0.293,1.013-0.688,1.417-1.143c0.436-0.489,0.845-1.041,1.396-1.487	c0.628-0.511,1.403-0.849,2.463-0.849h1.992c1.059,0,1.833,0.339,2.461,0.849c0.544,0.44,0.916,0.947,1.396,1.487	c0.404,0.455,0.821,0.849,1.417,1.143c0.595,0.295,1.439,0.521,2.725,0.521h4c1.837,0,4.416,1.277,4.915,3.299	C51.17,53.896,52.002,52.321,52.002,50.999z M16.371,44.22l7.928-7.928c1.941-1.94,4.353-3.293,7.705-3.293	c3.351,0,5.764,1.351,7.707,3.293l7.928,7.928l3.365-8.413V32.45c-1.216,2.145-2.931,3.549-4.997,3.549	c-2.148,0-5.187-1.913-7.289-3.135c-2.764-1.605-5.065-2.865-6.711-2.865c-1.631,0-4.028,1.305-6.712,2.865	c-2.267,1.316-5.249,3.135-7.288,3.135c-2.079,0-3.791-1.381-5.001-3.508l0.001,3.316L16.371,44.22z M24.29,31.135	c2.403-1.396,5.403-3.136,7.717-3.136c2.328,0,5.237,1.696,7.716,3.136c2.92,1.697,4.933,2.864,6.284,2.864	c2.303,0,4.908-3.876,4.997-9.694V24c0-0.024,0-0.048,0.001-0.072V23H13.007v1c0,6.052,2.621,10,5,10	C19.238,33.999,21.181,32.942,24.29,31.135z M16.007,25h11.695c0.637,0,1.239,0.261,0.581,1.025	c-2.076,2.413-5.624,4.975-8.276,4.975C17.375,30.999,16.007,28.029,16.007,25z M35.731,26.025C35.074,25.261,35.675,25,36.313,25	h11.695c0,3.029-1.368,6-4,6C41.355,30.999,37.807,28.438,35.731,26.025z M32.006,5c-10.64,0-18.999,7.318-18.999,16h38	C51.007,12.319,42.647,5,32.006,5z"></path><linearGradient id="J5U0umAhBKvqiGaJJA-7qe_C5vHoF1T9Sqf_gr5" x1="206.689" x2="210.013" y1="733.748" y2="733.748" gradientTransform="rotate(90 468.842 296.912)" gradientUnits="userSpaceOnUse"><stop offset="0" stop-color="#6dc7ff"></stop><stop offset="1" stop-color="#eaabff"></stop></linearGradient><path fill="url(#J5U0umAhBKvqiGaJJA-7qe_C5vHoF1T9Sqf_gr5)" d="M32.002,37.999c-0.307,0-0.641,0.041-0.996,0.113	l-0.001-3.063c0.321-0.033,0.653-0.051,1-0.051c0.347,0,0.68,0.017,1.003,0.052l-0.001,3.065	C32.646,38.042,32.307,37.999,32.002,37.999z"></path><linearGradient id="J5U0umAhBKvqiGaJJA-7qf_C5vHoF1T9Sqf_gr6" x1="206.798" x2="211.15" y1="734.747" y2="734.747" gradientTransform="rotate(90 467.179 295.576)" gradientUnits="userSpaceOnUse"><stop offset="0" stop-color="#6dc7ff"></stop><stop offset="1" stop-color="#eaabff"></stop></linearGradient><path fill="url(#J5U0umAhBKvqiGaJJA-7qf_C5vHoF1T9Sqf_gr6)" d="M27.006,39.59v-2.999	c0.615-0.448,1.275-0.815,2.001-1.083v3.216C28.314,38.991,27.626,39.299,27.006,39.59z"></path><linearGradient id="J5U0umAhBKvqiGaJJA-7qg_C5vHoF1T9Sqf_gr7" x1="206.798" x2="211.157" y1="732.748" y2="732.748" gradientTransform="rotate(90 470.179 298.576)" gradientUnits="userSpaceOnUse"><stop offset="0" stop-color="#6dc7ff"></stop><stop offset="1" stop-color="#eaabff"></stop></linearGradient><path fill="url(#J5U0umAhBKvqiGaJJA-7qg_C5vHoF1T9Sqf_gr7)" d="M35.005,38.735l0.001-3.225	c0.727,0.269,1.387,0.637,2.001,1.085v3.001C36.381,39.304,35.693,38.999,35.005,38.735z"></path><linearGradient id="J5U0umAhBKvqiGaJJA-7qh_C5vHoF1T9Sqf_gr8" x1="207.544" x2="210.862" y1="731.748" y2="731.748" gradientTransform="rotate(90 470.56 301.196)" gradientUnits="userSpaceOnUse"><stop offset="0" stop-color="#6dc7ff"></stop><stop offset="1" stop-color="#eaabff"></stop></linearGradient><path fill="url(#J5U0umAhBKvqiGaJJA-7qh_C5vHoF1T9Sqf_gr8)" d="M41.007,41.53l-2.001-0.971l0.001-2.14l2.001,2.001	L41.007,41.53z"></path><linearGradient id="J5U0umAhBKvqiGaJJA-7qi_C5vHoF1T9Sqf_gr9" x1="207.543" x2="210.863" y1="735.747" y2="735.747" gradientTransform="rotate(90 464.562 295.193)" gradientUnits="userSpaceOnUse"><stop offset="0" stop-color="#6dc7ff"></stop><stop offset="1" stop-color="#eaabff"></stop></linearGradient><path fill="url(#J5U0umAhBKvqiGaJJA-7qi_C5vHoF1T9Sqf_gr9)" d="M23.007,41.526v-1.112l2.001-2.001v2.143	L23.007,41.526z"></path>
</svg>